# xmcd CD database file
#
# Track frame offsets:
# 150
# 12019
# 24565
# 36066
# 48510
# 69606
# 83419
# 95928
# 108940
# 123592
# 136959
# 153229
# 164657
# 179457
# 192722
# 209122
# 230689
# 244666
#
# Disc length: 3437 seconds
# Revision: 3
# Processed by: cddbd v1.5.2PL0 Copyright (c) Steve Scherf et al.
# Submitted via: MusicBin 0.4
#
DISCID=010d6b12
DTITLE=Various Artist - Classic Country: Cowboy Country
DYEAR=1995
DGENRE=Country
TTITLE0=Gene Autry - Back in the Saddle Again
TTITLE1=Sons of the Pioneers - Cool Water
TTITLE2=Eddy Arnold - The Cattle Call
TTITLE3=Tex Ritter - High Noon (Do Not Forsake Me)
TTITLE4=Marty Robbins - El Paso
TTITLE5=Johnny Cash - Don't Take Your Guns to Town
TTITLE6=Johnny Bond - Carry My Back to the Lone Prairie
TTITLE7=Billy Walker - Cross the Brazos at Waco
TTITLE8=Glen Campbell - Rhinestone Cowboy
TTITLE9=Moe Bandy - Bandy the Rodeo Clown
TTITLE10=David Allan Coe - Ride 'Em Cowboy
TTITLE11=Willie Nelson and Waylon Jennings - Mammas, Don't Let You
TTITLE11=r Babies Grow Up to Be Cowboys
TTITLE12=Riders in the Sky - (Ghost) Riders in the Sky
TTITLE13=Lefty Frizzell - Honky Tonk Stardust Cowboy
TTITLE14=Doug Sahm and the Texas Tornadoes - Cowboy Peyton Place
TTITLE15=Michael Martin Murphey - The Old Chisholm Trail
TTITLE16=Willie Nelson - My Heroes Have Always Been Cowboys
TTITLE17=Roy Rogers and Dale Evans - Happy Trails
EXTD=
EXTT0=\nYEAR: 1939
EXTT1=\nYEAR: 1947
EXTT2=\nYEAR: 1963
EXTT3=\nYEAR: 1952
EXTT4=\nYEAR: 1962
EXTT5=\nYEAR: 1958
EXTT6=\nYEAR: 1961
EXTT7=\nYEAR: 1965
EXTT8=\nYEAR: 1975
EXTT9=\nYEAR: 1975
EXTT10=\nYEAR: 1983
EXTT11=\nYEAR: 1977
EXTT12=\nYEAR: 1979
EXTT13=\nYEAR: 1971
EXTT14=\nYEAR: 1976
EXTT15=\nYEAR: 1990
EXTT16=\nYEAR: 1981
EXTT17=\nYEAR: 1952
PLAYORDER=
